<svg class="icon" viewBox="0 0 24 24" xmlns="http://www.w3.org/2000/svg" xmlns:xlink="http://www.w3.org/1999/xlink" width="200" height="200">
	<path d="M629.87907 948.986047a73.346977 73.346977 0 0 1-73.108837-73.108838v-236.710697a73.346977 73.346977 0 0 1 73.108837-73.108838h236.710697a73.346977 73.346977 0 0 1 73.108838 73.108838v236.710697a73.346977 73.346977 0 0 1-73.108838 73.108838h-236.710697z m-5.715349-315.534884V881.116279h248.141395V633.451163zM156.695814 948.986047a73.346977 73.346977 0 0 1-73.108837-73.108838v-236.710697a73.346977 73.346977 0 0 1 73.108837-73.108838h236.710698a73.346977 73.346977 0 0 1 73.108837 73.108838v236.710697a73.346977 73.346977 0 0 1-73.108837 73.108838H156.695814zM151.218605 633.451163V881.116279h247.903255V633.451163zM748.234419 523.906977a71.44186 71.44186 0 0 1-51.676279-21.432558l-166.697675-166.697675a71.44186 71.44186 0 0 1-21.432558-51.676279 73.585116 73.585116 0 0 1 21.432558-51.676279l166.697675-166.697674a73.585116 73.585116 0 0 1 103.352558 0l166.697674 166.697674a73.108837 73.108837 0 0 1 0 103.114419l-166.697674 166.697674a71.44186 71.44186 0 0 1-51.676279 21.670698z m-175.508838-240.52093l175.508838 175.508837 175.270697-175.508837-175.508837-174.31814zM156.695814 476.27907a73.346977 73.346977 0 0 1-73.108837-72.870698V166.697674a73.346977 73.346977 0 0 1 73.108837-73.823255h236.710698A73.585116 73.585116 0 0 1 466.515349 166.697674v236.710698A73.346977 73.346977 0 0 1 393.406512 476.27907H156.695814zM151.218605 160.506047v247.903255h247.903255V160.267907z" fill="#000000" p-id="9060"></path>
</svg>